<?xml version="1.0" encoding="utf-8"?>
<!-- Generator: Adobe Illustrator 22.0.1, SVG Export Plug-In . SVG Version: 6.00 Build 0)  -->
<svg version="1.1" id="Capa_1" xmlns="http://www.w3.org/2000/svg" xmlns:xlink="http://www.w3.org/1999/xlink" x="0px" y="0px"
	 viewBox="0 0 595.3 841.9" style="enable-background:new 0 0 595.3 841.9;" xml:space="preserve">
<style type="text/css">
	.st0{fill:#FFFFFF;}
	.st1{fill:none;stroke:#FFFFFF;stroke-linecap:round;stroke-miterlimit:10;}
</style>
<g>
	<path class="st0" d="M342.4,337.6c-5.9-2-11.1-3.2-15.7-3.4c-4.6-0.2-9.1-0.2-13.5,0.2c-4.4,0.3-8.8,0.9-13.4,1.5
		c-4.5,0.7-9.6,1-15.2,1c-2.7,0-4.5-0.7-5.2-2.2c-0.8-1.5-1.2-3.4-1.2-5.9c0-6.1,2.1-10.9,6.3-14.4c4.2-3.5,8.5-6.8,13-10
		c-5.6,1.1-11.2,2.1-16.7,2.9c-5.5,0.8-11.2,1.2-17.1,1.2c-3.2,0-6.3-0.1-9.5-0.3c-3.2-0.2-6.1-0.9-8.8-1.9c-2.7-1-4.9-2.6-6.6-4.7
		c-1.7-2.1-2.5-5.2-2.5-9.3s0.7-7.3,2-9.6c1.4-2.4,3.9-4.4,7.8-6.2c5.2,3.8,9,6.1,11.5,6.8c2.5,0.7,4.7,1,6.8,1
		c6.8,0,14-0.8,21.8-2.4c7.8-1.6,15.4-3.3,23-5.1s14.6-3.5,21.1-5.1c6.5-1.6,11.8-2.4,15.9-2.4c1.1,0,2,1.3,2.5,3.9
		c0.6,2.6,0.9,4.3,0.9,5.2c0,3.8-1.4,7.5-4.2,11c-2.8,3.5-6.3,6.6-10.3,9.5s-8.3,5.5-12.7,7.9c-4.4,2.5-8.2,4.6-11.3,6.4
		c4.1,0.2,9.1,0.2,15.2-0.2s11.7-0.1,16.9,0.7c5.2,0.8,9.5,2.5,12.9,5.2c3.4,2.7,4.4,7.1,3,13.2c-3.6,17.4-9.7,33.7-18.3,49
		c-8.6,15.3-18.8,29.6-30.8,42.8c-11.9,13.2-25.1,25-39.4,35.5c-14.3,10.5-29,19.5-44.1,27.1c-15.1,7.5-30.2,13.5-45.3,17.9
		c-15.1,4.4-29.3,6.9-42.6,7.6c-6.1,0.5-14,0.1-23.8-1c-9.8-1.1-19.3-3.2-28.6-6.2c-9.2-3.1-17.3-7.2-24.2-12.5
		c-6.9-5.3-10.5-12.1-11-20.5c-0.2-3.4,0.3-6.5,1.5-9.5c1.2-2.9,3.7-4.5,7.3-4.7c1.1-0.2,2.1,0.1,2.9,0.9c0.8,0.8,1.4,1.7,1.9,2.9
		c4.1,3.8,9.5,6.9,16.2,9.3c6.8,2.4,13.9,4.2,21.5,5.4c7.6,1.2,15,2.1,22.3,2.5c7.3,0.5,13.7,0.5,19.1,0
		c19.8-0.9,39.3-4.6,58.5-11.2c19.2-6.5,37.3-15.7,54.4-27.6s33-26.3,47.7-43.3C318.8,379.6,331.6,359.9,342.4,337.6z"/>
</g>
<g>
	<g>
		<path class="st0" d="M205.9,524.5c62.3,24.5,135.3,8.4,181.2-40.3c41.7-44.1,56.4-109.2,37-166.9c-18.8-56-67.7-99.3-125.9-110.3
			c-59.4-11.2-122.1,10.9-160.2,58.2c-40.9,50.7-48.8,121.6-19.4,180c3.9,7.7,8.4,15,13.5,22c2.4,3.3,6.5,4.8,10.3,2.7
			c3.3-1.9,5.1-7,2.7-10.3C109.2,410,106,343,138.1,290.8c28.9-47,82.2-74.5,137.2-71.6c54.2,2.9,103.4,36.2,127.3,84.7
			C427,353.7,421,414.2,388.7,459c-34.4,47.6-95.9,71.1-153.3,58.8c-8.7-1.9-17.2-4.5-25.5-7.8c-3.8-1.5-8.2,1.6-9.2,5.2
			C199.4,519.5,202.1,523,205.9,524.5L205.9,524.5z"/>
	</g>
</g>
<g>
	<path class="st0" d="M169.9,200.8c-0.6,0.5-1.2,1.2-1.9,2c-0.7,0.8-1.3,1.6-2,2.5c-0.7,0.9-1.3,1.8-1.9,2.8c-0.6,1-1.1,2-1.5,3
		s-0.8,1.9-1,2.9c-0.2,0.9-0.3,1.8-0.2,2.7c0,0.1,0,0.3,0.1,0.4c0.1,0.1,0.1,0.2,0.2,0.3c0.1,0.1,0.1,0.1,0.1,0.2
		c0,0.1,0,0.1-0.1,0.1c-0.1,0.1-0.3,0.1-0.4,0c-0.1-0.1-0.3-0.1-0.4-0.3c-0.1-0.1-0.2-0.3-0.3-0.4c-0.1-0.1-0.2-0.3-0.2-0.4
		c-0.3-0.7-0.4-1.5-0.2-2.6c0.2-1.1,0.5-2.3,1.1-3.6c0.5-1.3,1.2-2.6,1.9-4c0.8-1.4,1.6-2.6,2.4-3.8c0.9-1.2,1.7-2.2,2.6-3.1
		c0.9-0.9,1.6-1.5,2.3-1.8c0.3-0.1,0.5-0.2,0.8-0.2c0.2,0,0.4,0.1,0.6,0.2c0.2,0.1,0.3,0.3,0.5,0.5c0.1,0.2,0.3,0.4,0.4,0.6
		c0.2,0.4,0.2,0.9,0.1,1.8c-0.1,0.8-0.3,1.8-0.5,2.8c-0.2,1.1-0.5,2.3-0.8,3.5c-0.3,1.2-0.6,2.5-0.8,3.7c-0.2,1.2-0.4,2.4-0.5,3.5
		c-0.1,1.1,0,2.1,0.2,2.9c0.5-1.3,1-2.6,1.4-4c0.4-1.3,0.9-2.7,1.4-4c0.4-1.1,0.9-2.2,1.5-3.3c0.6-1.1,1-2.2,1.5-3.3
		c0-0.1,0-0.2,0.1-0.3c0-0.1,0.1-0.2,0.2-0.2c0.1,0,0.2,0,0.3,0.1c0.1,0.1,0.3,0.2,0.4,0.3c0.1,0.1,0.3,0.2,0.4,0.4
		c0.1,0.1,0.2,0.2,0.2,0.3c0,0.1,0.1,0.2,0.1,0.5c0,0.2,0,0.5,0,0.8s0,0.6,0,0.8c0,0.3,0,0.5,0,0.6c0.1,0.7,0.2,1.5,0.2,2.2
		c0.1,0.7,0.2,1.4,0.3,2.1c0.1,0.7,0.3,1.4,0.5,2c0.2,0.7,0.5,1.4,0.8,2c0.1,0.2,0.2,0.3,0.2,0.5c0.1,0.2,0.2,0.4,0.3,0.5
		c0.5-0.5,0.9-1.3,1.3-2.2c0.4-0.9,0.8-2,1.1-3.1c0.3-1.1,0.7-2.3,0.9-3.6c0.3-1.3,0.5-2.5,0.7-3.7c0.2-1.2,0.4-2.3,0.5-3.3
		c0.1-1,0.2-1.9,0.2-2.6c0-0.1,0-0.3,0-0.6c0-0.3,0-0.5-0.1-0.8c0-0.3-0.1-0.6-0.1-0.9c0-0.3-0.1-0.6-0.1-0.9s-0.1-0.5-0.1-0.7
		c0-0.2,0-0.3,0-0.3l0.1-0.1c0.2,0,0.3,0.1,0.5,0.1c0.1,0.1,0.2,0.2,0.3,0.3c0.2,0.5,0.4,0.9,0.5,1.5c0.1,0.5,0.2,1,0.3,1.6
		c0.1,0.5,0.1,1.1,0.1,1.6c0,0.5,0.1,1.1,0.1,1.6c0,0.4,0,0.9,0,1.6c0,0.7-0.1,1.5-0.2,2.3c-0.1,0.9-0.2,1.8-0.3,2.9
		s-0.3,2.1-0.5,3.1c-0.2,1-0.4,2-0.6,3s-0.4,1.8-0.7,2.6c-0.2,0.8-0.5,1.4-0.8,1.9c-0.3,0.5-0.6,0.9-0.9,1c-0.3,0.1-0.5,0.2-0.9,0.1
		c-0.3,0-0.6-0.1-0.8-0.2c-0.5-0.2-1-0.4-1.3-0.6c-0.4-0.2-0.7-0.4-0.9-0.6c-0.3-0.2-0.5-0.5-0.7-0.8c-0.2-0.3-0.5-0.8-0.7-1.3
		c-0.2-0.5-0.4-1-0.5-1.6c-0.1-0.6-0.2-1.2-0.3-1.8c-0.1-0.6-0.1-1.2-0.2-1.8c0-0.6-0.1-1.1-0.1-1.6c0-0.5,0-0.9,0-1.2
		c0-0.3,0-0.5,0-0.5c-0.4,1-0.8,2-1.2,3c-0.4,1-0.8,2-1.2,3.1c-0.1,0.2-0.1,0.4-0.3,0.8c-0.1,0.4-0.3,0.8-0.4,1.3
		c-0.2,0.5-0.3,1-0.5,1.5c-0.2,0.5-0.4,1-0.5,1.5c-0.2,0.5-0.3,0.8-0.5,1.1s-0.3,0.5-0.4,0.5c-0.2,0.1-0.4,0.1-0.7,0
		c-0.3-0.1-0.5-0.2-0.8-0.4c-0.3-0.2-0.5-0.3-0.7-0.5c-0.2-0.2-0.3-0.4-0.4-0.5c-0.5-1.1-0.8-2.4-0.8-3.7s0.1-2.8,0.3-4.2
		s0.6-2.8,1-4.2C169.2,203.3,169.5,202,169.9,200.8L169.9,200.8z"/>
	<path class="st0" d="M189.2,202.1c-0.1,0.3-0.2,0.6-0.2,1c-0.1,0.3,0,0.7,0.1,1c0,0.1,0.1,0.2,0.2,0.2c0.1,0,0.2,0,0.3,0
		c0.1,0,0.2,0,0.3-0.1c0.1,0,0.2-0.1,0.3-0.1c0.4-0.2,0.8-0.4,1.2-0.8c0.4-0.4,0.7-0.8,1.1-1.3s0.6-1,0.9-1.6
		c0.3-0.5,0.5-1.1,0.7-1.5s0.4-0.8,0.5-1.1c0.1-0.3,0.2-0.5,0.3-0.5c0,0,0.1,0,0.2,0.1c0.1,0.1,0.1,0.1,0.2,0.2s0.1,0.2,0.2,0.2
		c0,0.1,0.1,0.2,0.1,0.2c0,0.1,0,0.3-0.1,0.7c-0.1,0.4-0.3,0.8-0.5,1.3s-0.5,1.1-0.8,1.7s-0.6,1.2-0.9,1.7c-0.3,0.5-0.6,1-1,1.4
		c-0.3,0.4-0.6,0.6-0.9,0.7c-0.4,0.1-0.8,0.2-1.2,0.2c-0.4,0-0.7-0.2-1-0.3c-0.3-0.2-0.6-0.4-0.8-0.7c-0.2-0.3-0.4-0.5-0.5-0.8
		c-0.2-0.4-0.2-0.9-0.1-1.5c0.1-0.6,0.3-1.2,0.6-1.8c0.3-0.6,0.6-1.1,1-1.6c0.4-0.5,0.8-0.8,1.3-1c0.2-0.1,0.3-0.1,0.5,0
		s0.4,0.1,0.5,0.2c0.2,0.1,0.3,0.2,0.4,0.3c0.1,0.1,0.2,0.3,0.3,0.4c0.1,0.3,0.1,0.6,0,1s-0.3,0.7-0.5,1c-0.2,0.3-0.5,0.6-0.8,0.9
		c-0.3,0.3-0.6,0.5-0.9,0.6c-0.2,0.1-0.3,0.1-0.5,0C189.5,202.3,189.3,202.2,189.2,202.1z M189.7,201.2c0.7-0.5,1.2-1.1,1.4-1.8
		c-0.3,0.2-0.6,0.5-0.8,0.8C190.1,200.5,189.9,200.9,189.7,201.2z"/>
	<path class="st0" d="M192,206c-0.1-0.2,0-0.6,0.2-1.3c0.2-0.7,0.4-1.5,0.8-2.4c0.3-0.9,0.7-2,1.2-3.1c0.4-1.1,0.9-2.2,1.3-3.3
		s0.9-2.1,1.3-3.1s0.7-1.7,1-2.3c0,0,0.1-0.1,0.1-0.2c0.1-0.1,0.1-0.2,0.2-0.2c0.1,0,0.2,0,0.3,0c0.1,0,0.2,0.1,0.3,0.2
		c0.1,0.1,0.2,0.2,0.2,0.3c0.1,0.1,0.1,0.2,0.1,0.3c0,0.1,0,0.2,0,0.3s-0.1,0.3-0.1,0.5c0,0.2-0.1,0.3-0.2,0.5
		c-0.1,0.1-0.1,0.3-0.1,0.3c-0.2,0.5-0.5,1.1-0.7,1.8c-0.3,0.6-0.5,1.3-0.8,1.9c-0.3,0.6-0.5,1.3-0.7,1.9c-0.2,0.6-0.4,1.2-0.5,1.8
		l0,0.1l0.1-0.1c0.2-0.2,0.4-0.6,0.7-1c0.3-0.5,0.6-0.9,1-1.4c0.3-0.5,0.7-0.9,1-1.3c0.3-0.4,0.7-0.6,0.9-0.7c0.2-0.1,0.4-0.1,0.6,0
		c0.2,0.1,0.4,0.1,0.5,0.2c0.2,0.1,0.3,0.2,0.4,0.4c0.1,0.2,0.2,0.3,0.3,0.5c0.1,0.2,0.1,0.4,0.1,0.6c0,0.2,0,0.5,0,0.7
		c0.1-0.1,0.3-0.2,0.5-0.5c0.3-0.2,0.5-0.5,0.8-0.7c0.3-0.3,0.6-0.5,1-0.8c0.3-0.3,0.6-0.5,0.9-0.8c0.3-0.2,0.5-0.4,0.7-0.6
		c0.2-0.1,0.3-0.2,0.3-0.2c0.1,0,0.2,0,0.4,0.2c0.1,0.2,0.2,0.3,0.2,0.4c0,0.2-0.1,0.3-0.2,0.4c-1.1,1-2.1,1.9-3.2,2.9
		c-0.4,0.3-0.7,0.6-1.1,0.9c-0.4,0.3-0.7,0.6-1,0.9c0,0-0.1,0.1-0.1,0.2c-0.1,0.2-0.3,0.5-0.6,0.9c-0.3,0.4-0.5,0.8-0.8,1.2
		c-0.3,0.4-0.6,0.7-0.9,1c-0.3,0.3-0.6,0.5-0.9,0.6c-0.4,0.1-0.7,0.1-1,0c-0.2-0.1-0.5-0.3-0.8-0.5c-0.2,0.6-0.5,1.2-0.7,1.8
		c-0.3,0.6-0.5,1.2-0.8,1.8c0,0.1,0,0.1-0.1,0.2c0,0.1-0.1,0.1-0.2,0.1c-0.1,0-0.3,0-0.5,0c-0.2-0.1-0.3-0.2-0.5-0.3
		s-0.3-0.3-0.4-0.4C192.1,206.3,192,206.1,192,206z M199.9,196.7c-0.7,0.6-1.3,1.3-1.9,2.1c-0.6,0.8-1.1,1.6-1.5,2.4
		c0.3-0.2,0.7-0.4,1-0.6c0.3-0.3,0.7-0.5,1-0.7c0.1-0.1,0.3-0.2,0.3-0.2c0.1-0.1,0.1-0.1,0.2-0.2c0.1-0.1,0.1-0.1,0.1-0.2
		c0-0.1,0.1-0.2,0.2-0.4c0.2-0.4,0.3-0.7,0.4-1.1C199.8,197.4,199.9,197.1,199.9,196.7z"/>
	<path class="st0" d="M221.6,196.9c0.5-0.3,0.9-0.6,1.3-0.9c0.4-0.3,0.7-0.6,1.1-0.9c0.3-0.3,0.7-0.6,1-0.9c0.3-0.3,0.7-0.7,1.1-1.1
		c0.3-0.3,0.8-0.8,1.4-1.4c0.6-0.6,1.2-1.3,1.9-2.1c0.7-0.8,1.4-1.6,2-2.5s1.3-1.7,1.8-2.5c0.5-0.8,0.9-1.6,1.2-2.3
		c0.3-0.7,0.4-1.3,0.3-1.7c0-0.2-0.2-0.4-0.4-0.5c-0.2-0.1-0.5-0.2-0.7-0.2c-0.3,0-0.6,0-0.8,0s-0.5,0.1-0.7,0.1
		c-2.1,0.4-4,1.1-5.9,1.9c-1.9,0.8-3.6,1.8-5.3,3c-1.7,1.2-3.3,2.4-4.8,3.8c-1.5,1.4-3,2.9-4.4,4.4c-0.2,0-0.3-0.1-0.5-0.3
		c-0.1-0.2-0.2-0.4-0.2-0.6c0-0.5,0.2-1.1,0.6-1.7s0.9-1.3,1.6-2.1c0.7-0.7,1.5-1.5,2.4-2.2c0.9-0.8,2-1.5,3-2.3s2.2-1.5,3.4-2.1
		c1.2-0.7,2.4-1.3,3.5-1.9s2.3-1,3.4-1.5c1.1-0.4,2.1-0.7,3.1-0.9c0.5-0.1,0.9-0.2,1.3-0.2c0.4,0,0.8,0,1.1,0.1s0.6,0.3,0.8,0.6
		c0.2,0.3,0.4,0.7,0.5,1.2c0.2,1,0.1,2-0.3,3.2c-0.4,1.2-1,2.4-1.8,3.6c-0.8,1.2-1.7,2.4-2.8,3.7c-1,1.2-2.1,2.4-3.2,3.4
		c-1.1,1.1-2.1,2-3.1,2.9c-1,0.9-1.8,1.6-2.4,2.1c-0.6,0.5-1.2,0.9-1.8,1.3s-1.2,0.8-1.9,1.2c0,0-0.1,0.1-0.3,0.2s-0.3,0.2-0.4,0.3
		c-0.2,0.1-0.3,0.2-0.4,0.3c-0.1,0.1-0.2,0.1-0.2,0.1c-0.1,0-0.1,0-0.2-0.1c-0.1-0.1-0.1-0.1-0.1-0.2c0-0.1-0.1-0.1-0.1-0.2
		c0-0.1,0-0.1-0.1-0.2c0-0.1,0-0.2,0-0.3c0-0.1,0-0.2,0.1-0.3c0.1,0,0.1-0.1,0.1-0.2c0-0.1,0-0.1,0.1-0.2c0.1-0.2,0.1-0.4,0.2-0.5
		c0.1-0.1,0.2-0.3,0.4-0.4c0.3-0.4,0.6-0.8,0.9-1.1c0.3-0.4,0.6-0.8,0.9-1.1c0.1-0.1,0.2-0.3,0.3-0.5c0.1-0.2,0.2-0.3,0.3-0.5
		c0.4-0.7,0.8-1.3,1.2-2c0.4-0.7,0.9-1.4,1.2-2.1c0.4-0.7,0.8-1.5,1.1-2.2c0.3-0.7,0.6-1.5,0.7-2.2c0,0,0-0.2,0.1-0.4
		c0-0.2,0.1-0.4,0.1-0.6c0-0.2,0.1-0.5,0.1-0.7c0-0.2,0.1-0.4,0.1-0.6c0-0.1,0.1-0.1,0.2,0.1c0.1,0.1,0.3,0.4,0.5,0.6
		c0.2,0.3,0.4,0.5,0.5,0.8c0.2,0.3,0.3,0.6,0.3,0.8c0.1,0.3,0,0.7-0.2,1.2c-0.2,0.5-0.4,1.1-0.7,1.7c-0.3,0.6-0.6,1.3-1,2
		c-0.4,0.7-0.8,1.3-1.2,2c-0.4,0.6-0.7,1.2-1.1,1.7C222.1,196.2,221.8,196.6,221.6,196.9L221.6,196.9z"/>
	<path class="st0" d="M234.8,190.2c-0.2,0.3-0.3,0.6-0.4,0.9c-0.1,0.3-0.2,0.7-0.1,1c0,0.1,0.1,0.2,0.1,0.2c0.1,0.1,0.2,0.1,0.3,0.1
		c0.1,0,0.2,0,0.3,0s0.2,0,0.3,0c0.5-0.1,0.9-0.3,1.4-0.6c0.5-0.3,0.9-0.7,1.3-1.1c0.4-0.4,0.8-0.9,1.2-1.4c0.4-0.5,0.7-0.9,1-1.3
		c0.3-0.4,0.5-0.7,0.7-1c0.2-0.3,0.3-0.4,0.4-0.4c0,0,0.1,0,0.2,0.1c0.1,0.1,0.1,0.1,0.1,0.2c0,0.1,0.1,0.2,0.1,0.3
		c0,0.1,0,0.2,0.1,0.2c0,0.1-0.1,0.3-0.3,0.7c-0.2,0.3-0.4,0.8-0.8,1.2c-0.3,0.5-0.7,1-1.1,1.5c-0.4,0.5-0.8,1-1.2,1.5
		c-0.4,0.5-0.8,0.8-1.2,1.2c-0.4,0.3-0.7,0.5-1,0.5c-0.4,0.1-0.8,0-1.2-0.1c-0.4-0.1-0.7-0.3-1-0.5c-0.3-0.2-0.5-0.5-0.7-0.8
		c-0.2-0.3-0.3-0.6-0.3-0.9c-0.1-0.4,0-0.9,0.2-1.5c0.2-0.6,0.5-1.1,0.9-1.6s0.8-1,1.3-1.4c0.5-0.4,1-0.6,1.5-0.7
		c0.2,0,0.3,0,0.5,0.1c0.2,0.1,0.3,0.2,0.5,0.3s0.3,0.3,0.4,0.4c0.1,0.2,0.2,0.3,0.2,0.5c0,0.3,0,0.6-0.2,0.9
		c-0.2,0.3-0.4,0.6-0.7,0.9c-0.3,0.3-0.6,0.5-1,0.7c-0.4,0.2-0.7,0.3-1,0.4c-0.2,0-0.3,0-0.5-0.1C235,190.4,234.9,190.3,234.8,190.2
		z M235.5,189.4c0.8-0.3,1.3-0.8,1.8-1.4c-0.4,0.2-0.7,0.4-1,0.6C236,188.8,235.7,189.1,235.5,189.4z"/>
	<path class="st0" d="M246.8,188.9c0.2,0.1,0.5,0.2,0.8,0.2c0.4,0,0.9-0.2,1.3-0.5c0.4-0.3,0.8-0.6,1.2-1s0.7-0.6,0.9-0.9
		c0.2-0.3,0.4-0.4,0.4-0.4c0.1,0,0.2,0.1,0.3,0.2c0.1,0.1,0.1,0.2,0.2,0.3l0,0.1c-0.2,0.2-0.4,0.5-0.7,0.9c-0.3,0.4-0.6,0.7-1,1
		c-0.4,0.3-0.7,0.6-1.1,0.9c-0.4,0.3-0.7,0.4-1,0.4c-0.3,0-0.6,0-1-0.1c-0.3-0.1-0.6-0.3-0.8-0.6c-0.1,0.1-0.3,0.3-0.5,0.6
		c-0.2,0.3-0.5,0.6-0.8,0.9c-0.3,0.3-0.6,0.7-1,1c-0.3,0.3-0.7,0.7-1,1c-0.3,0.3-0.6,0.5-0.9,0.7c-0.3,0.2-0.5,0.3-0.7,0.3
		c-0.2,0-0.4,0-0.6-0.2c-0.2-0.1-0.4-0.3-0.5-0.5c-0.1-0.2-0.3-0.4-0.3-0.7c-0.1-0.2-0.1-0.4-0.2-0.6c0-0.3,0-0.6,0-0.9
		c0-0.3,0.1-0.6,0.2-0.9c0-0.1,0.1-0.3,0.2-0.6c0.1-0.3,0.2-0.6,0.3-1c0.1-0.4,0.3-0.8,0.4-1.2s0.3-0.8,0.4-1.2
		c0.1-0.4,0.3-0.7,0.4-0.9c0.1-0.2,0.2-0.4,0.3-0.4s0.2,0,0.3,0.1c0.1,0.1,0.2,0.2,0.3,0.3c0.1,0.1,0.2,0.3,0.2,0.4
		c0.1,0.1,0.1,0.2,0.1,0.3c0,0,0,0.2-0.1,0.5c-0.1,0.3-0.1,0.6-0.2,1c-0.1,0.4-0.2,0.8-0.3,1.2c-0.1,0.4-0.2,0.9-0.3,1.3
		c-0.1,0.4-0.2,0.8-0.3,1.1c-0.1,0.3-0.1,0.6-0.2,0.7c0.8-0.5,1.5-1,2.1-1.5c0.6-0.5,1.3-1.1,1.9-1.8c0.1-0.1,0.1-0.1,0.1-0.2
		c0-0.3,0-0.6,0.1-0.8c0-0.2,0.1-0.5,0.1-0.7c0.1-0.2,0.1-0.5,0.2-0.7c0.1-0.2,0.2-0.5,0.4-0.8c0.1-0.2,0.3-0.5,0.4-0.7
		c0.2-0.3,0.4-0.5,0.6-0.8c0.2-0.2,0.5-0.5,0.7-0.6c0.3-0.2,0.5-0.3,0.8-0.3c0.3,0,0.5,0.1,0.6,0.3c0.1,0.2,0.2,0.4,0.3,0.6
		c0,0.4,0,0.8-0.3,1.3c-0.2,0.5-0.5,0.9-0.8,1.4c-0.3,0.5-0.7,0.9-1,1.3S247,188.6,246.8,188.9z M247,186.9c0.1-0.1,0.2-0.2,0.4-0.5
		c0.2-0.2,0.4-0.5,0.6-0.7c0.2-0.3,0.4-0.5,0.5-0.7c0.1-0.2,0.2-0.4,0.3-0.5c-0.4,0.3-0.7,0.7-1,1.1
		C247.4,186,247.2,186.4,247,186.9z"/>
	<path class="st0" d="M251.3,188.3c-0.2,0.3-0.3,0.6-0.5,0.9c-0.2,0.3-0.2,0.6-0.2,1c0,0.1,0,0.2,0.1,0.2c0.1,0.1,0.2,0.1,0.3,0.1
		s0.2,0,0.3,0c0.1,0,0.2,0,0.3,0c0.5,0,0.9-0.2,1.4-0.5c0.5-0.3,0.9-0.6,1.4-1c0.5-0.4,0.9-0.8,1.3-1.3c0.4-0.5,0.8-0.9,1.1-1.3
		c0.3-0.4,0.6-0.7,0.8-1c0.2-0.3,0.4-0.4,0.4-0.4c0,0,0.1,0,0.1,0.1c0,0.1,0.1,0.2,0.1,0.2c0,0.1,0.1,0.2,0.1,0.3c0,0.1,0,0.2,0,0.2
		c0,0.1-0.1,0.3-0.3,0.6c-0.2,0.3-0.5,0.7-0.8,1.2c-0.4,0.4-0.7,0.9-1.2,1.4c-0.4,0.5-0.9,1-1.3,1.4c-0.5,0.4-0.9,0.8-1.3,1.1
		c-0.4,0.3-0.8,0.4-1,0.5c-0.4,0-0.8,0-1.2-0.2c-0.4-0.2-0.7-0.3-0.9-0.6c-0.3-0.3-0.5-0.5-0.6-0.9c-0.1-0.3-0.2-0.6-0.3-0.9
		c0-0.4,0.1-0.9,0.4-1.5c0.3-0.5,0.6-1.1,1-1.6s0.9-0.9,1.4-1.3c0.5-0.4,1-0.5,1.5-0.6c0.2,0,0.3,0,0.5,0.1c0.2,0.1,0.3,0.2,0.4,0.3
		c0.1,0.1,0.2,0.3,0.3,0.4c0.1,0.2,0.1,0.3,0.1,0.5c0,0.3-0.1,0.6-0.3,0.9s-0.5,0.6-0.8,0.9c-0.3,0.3-0.7,0.5-1,0.7
		c-0.4,0.2-0.7,0.3-1,0.3c-0.2,0-0.3,0-0.5-0.1C251.5,188.5,251.4,188.4,251.3,188.3z M252,187.5c0.8-0.3,1.4-0.7,1.9-1.3
		c-0.4,0.2-0.7,0.3-1,0.6C252.6,187,252.3,187.2,252,187.5z"/>
	<path class="st0" d="M257.9,191.6c0.4-0.4,1-0.9,1.5-1.4c0.6-0.5,1.2-1.1,1.8-1.7c0.6-0.6,1.3-1.2,2-1.9s1.3-1.2,1.9-1.8
		c0,0,0.1,0,0.2,0c0.1,0.1,0.1,0.1,0.2,0.2c0.1,0.1,0.1,0.2,0.2,0.3c0,0.1,0.1,0.2,0,0.2c-1.5,1.6-3,3.3-4.5,4.9
		c-1.5,1.6-3.2,3.1-5,4.4c-0.1,0.1-0.2,0.2-0.3,0.2c-0.1,0.1-0.2,0.1-0.4,0.1c-0.2,0-0.4-0.1-0.6-0.2c-0.2-0.2-0.4-0.3-0.5-0.6
		s-0.3-0.5-0.3-0.7c-0.1-0.2-0.1-0.5-0.1-0.6c0-0.2,0-0.4,0-0.6c0-0.2,0.1-0.4,0.1-0.6c0.3-1.1,0.8-2.2,1.4-3.3
		c0.6-1.1,1.3-2.2,2-3.2c0.8-1,1.6-2,2.4-3c0.9-1,1.7-1.8,2.5-2.7c0,0,0.1-0.2,0.3-0.3c0.2-0.2,0.3-0.3,0.5-0.5
		c0.2-0.2,0.3-0.3,0.5-0.4c0.2-0.1,0.3-0.2,0.3-0.2c0.1,0,0.2,0,0.3,0.1c0.1,0.1,0.1,0.2,0.2,0.3c0,0.1,0.1,0.2,0.1,0.3
		c0,0.1,0,0.2,0,0.3c0,0.1,0,0.2-0.1,0.4c-0.5,0.8-1.1,1.6-1.7,2.3c-0.6,0.7-1.2,1.5-1.7,2.3c-0.8,1.1-1.5,2.2-2.2,3.4
		c-0.7,1.1-1.4,2.3-2,3.5c-0.2,0.3-0.3,0.6-0.5,0.9c-0.2,0.3-0.3,0.6-0.4,0.9L257.9,191.6z"/>
	<path class="st0" d="M270.8,186.8c0.5-0.3,1.1-0.6,1.7-0.9c0.6-0.3,1.2-0.7,1.7-1.2c0.3,0.2,0.4,0.5,0.4,0.8
		c-0.2,0.3-0.5,0.6-0.8,0.9c-0.4,0.3-0.7,0.6-1.1,0.8c-0.4,0.3-0.8,0.5-1.3,0.7s-0.8,0.4-1.2,0.6c-0.1,0.1-0.3,0.4-0.5,0.7
		c-0.2,0.3-0.5,0.7-0.7,1s-0.5,0.8-0.9,1.2c-0.3,0.4-0.6,0.8-1,1.1c-0.3,0.3-0.7,0.6-1.1,0.8c-0.4,0.2-0.7,0.3-1.1,0.3
		c-0.3,0-0.5-0.1-0.7-0.2c-0.2-0.2-0.4-0.4-0.5-0.6s-0.2-0.5-0.3-0.8s-0.1-0.5-0.1-0.7c0-0.5,0.1-1,0.2-1.5c0.2-0.5,0.4-1,0.7-1.4
		c0-0.1,0-0.3-0.1-0.4c-0.1-0.2-0.1-0.3-0.1-0.4c0-0.5,0.1-1,0.4-1.5s0.6-1.1,1.1-1.5c0.4-0.5,0.9-0.9,1.5-1.2
		c0.5-0.3,1.1-0.5,1.6-0.5c0.5,0,1,0.1,1.3,0.4c0.3,0.3,0.6,0.6,0.7,1s0.2,0.8,0.2,1.2C270.9,186,270.8,186.4,270.8,186.8z
		 M264.6,191.9c0.3-0.1,0.6-0.2,1-0.4s0.7-0.4,1-0.7c0.3-0.2,0.6-0.5,0.9-0.8c0.3-0.3,0.5-0.5,0.7-0.8c-0.4,0.1-0.9,0.2-1.3,0.3
		c-0.4,0.1-0.9,0.1-1.4,0c-0.2,0.4-0.3,0.7-0.5,1.1C264.7,191.1,264.6,191.5,264.6,191.9z M266.4,188.3c0.2,0,0.4-0.1,0.7-0.1
		c0.3-0.1,0.6-0.1,0.9-0.2c0.3-0.1,0.6-0.2,0.9-0.3c0.3-0.1,0.5-0.2,0.6-0.3c0.2-0.4,0.3-0.7,0.4-1.1c0.1-0.4,0.2-0.7,0.2-1.1
		c0-0.4-0.1-0.6-0.4-0.7c-0.2-0.1-0.5-0.2-0.9-0.2c-0.4,0-0.8,0.1-1.2,0.3c-0.4,0.2-0.7,0.4-1,0.7c-0.3,0.3-0.6,0.6-0.8,0.9
		s-0.5,0.7-0.6,1c0.1-0.1,0.3-0.2,0.5-0.4c0.2-0.2,0.4-0.4,0.6-0.6c0.2-0.2,0.4-0.4,0.6-0.5s0.4-0.2,0.5-0.2c0.1,0,0.2,0,0.3,0.1
		c0.1,0.1,0.2,0.2,0.2,0.3c0.1,0.1,0.1,0.3,0.1,0.4c0,0.1,0.1,0.3,0.1,0.3c-0.2,0.3-0.4,0.6-0.7,0.9
		C266.9,187.7,266.6,188,266.4,188.3z"/>
	<path class="st0" d="M273.6,188.5c0.2-0.1,0.4-0.3,0.7-0.5c0.3-0.2,0.6-0.4,0.9-0.6c0.3-0.2,0.6-0.4,1-0.5c0.3-0.1,0.6-0.2,0.8-0.2
		c0.2,0,0.4,0.1,0.5,0.2c0.2,0.1,0.3,0.2,0.4,0.4c0.1,0.2,0.2,0.3,0.3,0.5c0.1,0.2,0.1,0.3,0.1,0.5c0,0.1,0,0.2,0,0.3
		c0,0.1,0,0.2-0.1,0.3c0.8-0.5,1.5-1.1,2.2-1.6c0.7-0.5,1.2-1,1.7-1.4c0.4-0.4,0.8-0.7,1-0.9c0.2-0.2,0.4-0.4,0.4-0.4
		c0.1,0,0.1,0,0.2,0.1c0,0.1,0.1,0.2,0.1,0.3s0,0.2,0,0.3c0,0.1,0,0.2,0,0.3c-0.9,1.1-2,2.1-3.1,3c-1.2,0.9-2.4,1.8-3.6,2.6
		c0,0-0.1,0.1-0.1,0.1c0,0-0.1,0-0.1,0.1c-0.3,0.3-0.6,0.5-1,0.8s-0.9,0.6-1.3,0.9s-1,0.5-1.4,0.7c-0.5,0.2-0.9,0.3-1.3,0.3
		c-0.3,0-0.5-0.1-0.7-0.3c0,0-0.1,0.2-0.3,0.4c-0.1,0.3-0.3,0.6-0.5,0.9c-0.2,0.4-0.4,0.8-0.6,1.2c-0.2,0.4-0.4,0.9-0.6,1.3
		s-0.3,0.8-0.5,1.1c-0.1,0.3-0.2,0.5-0.3,0.6c0,0,0,0.1-0.1,0.1c0,0-0.1,0.1-0.1,0.1c-0.1,0-0.2,0-0.3-0.1c-0.1-0.1-0.2-0.2-0.3-0.3
		s-0.1-0.2-0.2-0.4c0-0.1-0.1-0.2-0.1-0.3c0-0.2,0-0.4,0.1-0.5c0-0.2,0.1-0.4,0.1-0.5c0.9-2.9,2.1-5.7,3.6-8.4s3.3-5.2,5.4-7.6
		c0.1-0.1,0.2-0.2,0.3-0.3c0.2-0.1,0.3-0.2,0.4-0.2c0.1,0,0.2,0,0.3,0.1c0.1,0.1,0.1,0.2,0.2,0.3c0.1,0.1,0.1,0.2,0.2,0.3
		c0,0.1,0.1,0.2,0.1,0.3c0,0-0.1,0.2-0.3,0.5c-0.2,0.3-0.4,0.7-0.7,1.1c-0.3,0.5-0.6,0.9-1,1.5c-0.3,0.5-0.7,1.1-1,1.5
		c-0.3,0.5-0.6,0.9-0.8,1.3C273.8,188.1,273.7,188.4,273.6,188.5L273.6,188.5z M277.2,188.1c-0.4,0.1-0.8,0.3-1.3,0.6
		c-0.5,0.3-1,0.6-1.4,1c-0.5,0.4-0.9,0.8-1.3,1.2c-0.4,0.4-0.7,0.8-0.9,1.1l0,0.1l0.1,0c0.6-0.3,1.1-0.5,1.6-0.7
		c0.5-0.2,1-0.4,1.4-0.7c0.4-0.2,0.8-0.6,1.1-0.9S277,188.8,277.2,188.1z"/>
	<path class="st0" d="M281.7,187.8c-0.2,0.3-0.4,0.5-0.6,0.8c-0.2,0.3-0.3,0.6-0.3,0.9c0,0.1,0,0.2,0.1,0.3s0.1,0.1,0.2,0.2
		c0.1,0,0.2,0.1,0.3,0.1c0.1,0,0.2,0,0.3,0c0.5,0,0.9-0.1,1.5-0.3c0.5-0.2,1-0.5,1.5-0.8c0.5-0.3,1-0.7,1.5-1.1
		c0.5-0.4,0.9-0.8,1.3-1.1c0.4-0.3,0.7-0.6,0.9-0.8c0.2-0.2,0.4-0.3,0.5-0.3c0,0,0.1,0,0.1,0.1c0,0.1,0.1,0.2,0.1,0.3
		c0,0.1,0,0.2,0,0.3c0,0.1,0,0.2,0,0.2c0,0.1-0.1,0.3-0.4,0.6c-0.3,0.3-0.6,0.6-1,1c-0.4,0.4-0.9,0.8-1.4,1.2s-1,0.8-1.5,1.2
		c-0.5,0.4-1,0.7-1.4,0.9c-0.4,0.2-0.8,0.3-1.1,0.3c-0.4,0-0.8-0.1-1.1-0.3c-0.3-0.2-0.6-0.4-0.8-0.7s-0.4-0.6-0.5-0.9
		c-0.1-0.3-0.1-0.7-0.1-1c0-0.4,0.2-0.9,0.5-1.4c0.3-0.5,0.7-1,1.2-1.4c0.5-0.4,1-0.8,1.6-1.1c0.6-0.3,1.1-0.4,1.6-0.4
		c0.2,0,0.3,0.1,0.5,0.2s0.3,0.2,0.4,0.4c0.1,0.2,0.2,0.3,0.3,0.5c0.1,0.2,0.1,0.3,0.1,0.5c0,0.3-0.2,0.6-0.4,0.9
		c-0.3,0.3-0.6,0.5-0.9,0.8c-0.4,0.2-0.7,0.4-1.1,0.5c-0.4,0.1-0.7,0.2-1,0.2c-0.2,0-0.3-0.1-0.4-0.2
		C281.9,188.1,281.8,187.9,281.7,187.8z M282.5,187.2c0.8-0.2,1.5-0.5,2-1.1c-0.4,0.1-0.7,0.2-1.1,0.4
		C283.1,186.7,282.8,186.9,282.5,187.2z"/>
	<path class="st0" d="M290.6,188.1c-0.2,0-0.4-0.1-0.7-0.2c-0.3-0.1-0.7-0.2-1-0.3c-0.4-0.1-0.7-0.2-1-0.3c-0.3-0.1-0.5-0.2-0.6-0.3
		c-0.1-0.1-0.1-0.1-0.2-0.3c-0.1-0.1-0.1-0.3-0.1-0.5c0-0.2-0.1-0.3-0.1-0.5c0-0.1,0-0.3,0-0.3c0-0.2,0.1-0.5,0.3-0.8
		c0.2-0.3,0.4-0.5,0.7-0.8c0.3-0.2,0.6-0.4,0.9-0.6c0.3-0.1,0.6-0.2,0.9-0.2c0.3,0,0.5,0.2,0.7,0.5c0.1,0.3,0.2,0.5,0.2,0.8
		c0,0.1-0.1,0.3-0.2,0.4c-0.1,0.2-0.2,0.3-0.4,0.5c-0.1,0.2-0.3,0.3-0.4,0.5s-0.3,0.3-0.4,0.4c0.3,0.1,0.7,0.2,1,0.2
		s0.6,0.2,0.9,0.3c0.3,0.2,0.5,0.4,0.6,0.6c0.1,0.3,0.2,0.6,0.2,1c0,0.4-0.2,0.7-0.6,1.2c-0.3,0.4-0.7,0.9-1.2,1.3
		c-0.5,0.4-0.9,0.9-1.4,1.3c-0.5,0.4-0.8,0.8-1.1,1.1c1-0.3,1.9-0.7,2.8-1.2c0.9-0.5,1.7-1.1,2.5-1.7c0.8-0.6,1.6-1.2,2.3-1.9
		s1.6-1.3,2.4-1.8c0.2,0,0.3,0.2,0.3,0.3c0,0.2,0.1,0.3,0.1,0.5c0,0.1-0.1,0.1-0.1,0.2s-0.1,0.1-0.1,0.1c-0.4,0.3-0.9,0.8-1.4,1.3
		c-0.6,0.5-1.2,1.1-1.8,1.7c-0.7,0.6-1.4,1.2-2.1,1.7c-0.7,0.6-1.5,1.1-2.2,1.6c-0.7,0.5-1.5,0.8-2.2,1.1c-0.7,0.3-1.4,0.4-2,0.3
		c-0.1,0-0.3-0.1-0.4-0.2c-0.1-0.1-0.2-0.3-0.3-0.4s-0.1-0.3-0.2-0.5c0-0.2,0-0.3,0-0.4c0-0.4,0.3-0.8,0.7-1.4
		c0.5-0.5,1-1.1,1.6-1.6c0.6-0.5,1.2-1.1,1.8-1.5C289.8,188.9,290.3,188.5,290.6,188.1z M287.6,185.8c0.1,0,0.3-0.1,0.4-0.2
		s0.3-0.2,0.5-0.3c0.2-0.1,0.3-0.2,0.5-0.4c0.1-0.1,0.2-0.3,0.3-0.4C288.6,184.7,288,185.2,287.6,185.8z"/>
</g>
<g>
	<path class="st0" d="M291.5,558.1c0.2,0,0.4-0.1,0.6-0.3c0.2-0.1,0.5-0.3,0.8-0.5c0.3-0.2,0.6-0.4,0.9-0.6c0.3-0.2,0.6-0.4,0.9-0.6
		c0.3-0.2,0.5-0.4,0.7-0.6c0.2-0.2,0.4-0.4,0.4-0.5c0.1-0.1,0.2-0.3,0.3-0.7s0.3-0.8,0.4-1.2c0.1-0.5,0.3-0.9,0.5-1.4
		c0.2-0.5,0.4-1,0.6-1.4s0.4-0.8,0.7-1c0.2-0.3,0.5-0.4,0.8-0.4c0.4,0,0.7,0.2,0.9,0.6c0.2,0.4,0.3,0.7,0.3,1.1
		c0,0.2-0.1,0.4-0.3,0.6c-0.1,0.2-0.3,0.4-0.4,0.7c-0.2,0.2-0.3,0.4-0.5,0.7s-0.3,0.5-0.4,0.7c-0.4,0.9-0.7,1.9-0.9,2.9
		c-0.2,1-0.4,2-0.4,3c-0.1,1.3,0,2.5,0.3,3.7c0.2,1.2,0.7,2.3,1.4,3.3c0.2,0.1,0.3,0.2,0.4,0.3c0.1,0,0.3,0.2,0.4,0.3
		c0.1,0.1,0.1,0.3,0.1,0.4c0,0.1,0,0.3-0.1,0.4c-0.3,0-0.6-0.1-0.8-0.2c-0.3-0.1-0.5-0.3-0.7-0.5c-0.2-0.2-0.4-0.4-0.6-0.6
		s-0.3-0.4-0.5-0.6c-0.5-0.6-0.8-1.3-1.1-2c-0.3-0.7-0.4-1.4-0.5-2.1c-0.1-0.7-0.2-1.5-0.2-2.2c0-0.8,0-1.5,0-2.3
		c-0.2,0.2-0.5,0.4-0.8,0.8c-0.3,0.3-0.7,0.7-1,1s-0.7,0.6-1.1,0.9c-0.4,0.2-0.7,0.4-1,0.3c-0.3,0-0.5-0.2-0.7-0.5
		c-0.2-0.3-0.4-0.6-0.5-1c-0.2-0.4-0.3-0.7-0.3-1.1c-0.1-0.4-0.1-0.7-0.1-0.9c0-0.2,0-0.5,0.1-0.7c0-0.2,0.1-0.5,0.2-0.7
		c-1.6,1.3-3.2,2.6-4.8,4c-1.6,1.4-3,2.8-4.4,4.5c-0.6,0.7-1.1,1.4-1.5,2.1c-0.4,0.7-0.9,1.4-1.4,2.2c0,0.1-0.1,0.1-0.2,0.1
		c-0.4,0-0.7-0.2-1-0.6s-0.4-0.8-0.4-1.2c0-0.7,0.2-1.6,0.6-2.5s0.8-1.9,1.3-3c0.5-1,1.1-2.1,1.8-3.1c0.7-1,1.3-2,2-2.9
		c0.7-0.9,1.4-1.7,2-2.5c0.7-0.7,1.3-1.3,1.8-1.6l0.1-0.1l0-0.1c-0.4,0.1-1,0.2-1.6,0.4s-1.3,0.4-2,0.7c-0.7,0.3-1.4,0.6-2.1,1
		c-0.7,0.4-1.3,0.8-1.9,1.3c-0.5,0.5-1,1-1.4,1.6c-0.4,0.6-0.6,1.2-0.6,1.9c-0.2,0.1-0.5,0.1-0.6-0.1c-0.2-0.2-0.3-0.5-0.4-0.8
		c-0.1-0.3-0.1-0.6-0.2-1c0-0.3,0-0.6,0-0.7c0-0.3,0.1-0.7,0.1-1.1c0.1-0.4,0.2-0.7,0.4-1c0.3-0.5,0.7-1,1.3-1.5
		c0.6-0.5,1.2-0.9,2-1.3c0.7-0.4,1.5-0.8,2.3-1.1c0.8-0.3,1.6-0.6,2.5-0.9c0.8-0.2,1.6-0.4,2.3-0.5c0.7-0.1,1.3-0.2,1.8-0.1
		c0.2,0,0.4,0.1,0.6,0.3c0.2,0.2,0.4,0.4,0.5,0.6c0.1,0.2,0.2,0.5,0.3,0.8c0.1,0.3,0.1,0.5,0.1,0.7c0,0.1,0,0.3-0.1,0.4
		c-0.3,0.4-0.7,0.8-1.1,1.1c-0.5,0.4-0.9,0.7-1.2,1.1c-0.8,0.8-1.6,1.7-2.4,2.6c-0.8,0.9-1.5,1.8-2.1,2.8c-0.7,1-1.3,2.1-2,3.1
		c-0.6,1.1-1.2,2.2-1.7,3.3c1.1-1.4,2.2-2.7,3.5-3.8c1.2-1.2,2.5-2.3,3.9-3.4c0.7-0.6,1.5-1.2,2.3-1.8c0.8-0.6,1.5-1.2,2.2-1.8
		c0.2-0.2,0.4-0.4,0.6-0.7s0.4-0.6,0.7-1c0.2-0.3,0.5-0.7,0.7-1s0.5-0.6,0.7-0.9c0,0,0.1-0.1,0.2-0.2c0.1-0.1,0.1-0.1,0.2-0.2
		c0.1-0.1,0.1-0.1,0.2-0.2c0.1,0,0.1-0.1,0.2-0.1c0.1,0,0.3,0.1,0.4,0.2c0.1,0.2,0.3,0.3,0.4,0.5s0.2,0.4,0.3,0.6
		c0.1,0.2,0.1,0.4,0.1,0.5c0,0.3-0.1,0.5-0.2,0.6c-0.1,0.1-0.3,0.3-0.4,0.4c-0.2,0.2-0.4,0.4-0.6,0.7c-0.2,0.3-0.5,0.6-0.7,1
		c-0.2,0.4-0.5,0.8-0.7,1.2c-0.2,0.4-0.5,0.8-0.7,1.2c-0.2,0.4-0.3,0.8-0.4,1.1C291.5,557.6,291.5,557.9,291.5,558.1z"/>
	<path class="st0" d="M305.6,557.9c0.2,0,0.5,0,0.7-0.1c0.3-0.1,0.5-0.3,0.8-0.5c0.3-0.2,0.5-0.5,0.7-0.8c0.2-0.3,0.4-0.5,0.6-0.8
		c0.2-0.2,0.3-0.4,0.4-0.6c0.1-0.2,0.2-0.2,0.2-0.3c0.2,0,0.3,0.1,0.3,0.3c0.1,0.2,0.1,0.3,0.1,0.4c-0.1,0.2-0.3,0.6-0.5,1
		c-0.3,0.4-0.5,0.8-0.9,1.3c-0.3,0.4-0.6,0.8-1,1.1c-0.3,0.3-0.6,0.5-0.9,0.5c-0.2,0-0.4,0-0.6-0.1c-0.2-0.1-0.3-0.3-0.5-0.4
		c-0.1-0.2-0.3-0.4-0.3-0.6c-0.1-0.2-0.2-0.4-0.2-0.6c0-0.1,0-0.2,0-0.3c0-0.1,0-0.2,0-0.3c-0.1,0.2-0.3,0.5-0.6,0.9
		c-0.3,0.4-0.6,0.8-0.9,1.2s-0.6,0.8-0.9,1.1c-0.3,0.3-0.6,0.5-0.8,0.5c-0.2,0-0.3,0-0.4-0.2c-0.1-0.1-0.3-0.3-0.4-0.5
		c-0.1-0.2-0.2-0.4-0.3-0.6c-0.1-0.2-0.1-0.4-0.1-0.5c-0.1-0.3,0-0.8,0.1-1.3c0.1-0.5,0.3-1,0.5-1.5c0.2-0.5,0.5-0.9,0.8-1.3
		c0.3-0.4,0.6-0.6,1-0.7c0.4-0.1,0.8,0,1.1,0.2c0.4,0.2,0.6,0.5,0.8,0.9c0.1-0.1,0.2-0.2,0.4-0.5c0.2-0.3,0.4-0.5,0.6-0.8
		c0.2-0.3,0.4-0.5,0.6-0.7c0.2-0.2,0.3-0.3,0.4-0.3c0.1,0,0.1,0,0.2,0.1c0.1,0.1,0.1,0.2,0.2,0.3s0.1,0.2,0.1,0.3
		c0,0.1,0.1,0.2,0.1,0.3c0,0.2,0,0.4-0.1,0.6c-0.1,0.3-0.2,0.4-0.3,0.6c-0.4,0.7-0.7,1.3-1,2c-0.1,0.1-0.1,0.3-0.1,0.4
		C305.6,557.6,305.6,557.8,305.6,557.9z M301.4,558.9L301.4,558.9c0.1,0,0.3-0.2,0.6-0.5c0.3-0.3,0.6-0.6,0.8-0.9
		c0.3-0.3,0.5-0.6,0.8-0.9c0.2-0.3,0.3-0.5,0.3-0.6c-0.1,0-0.2,0-0.3,0c-0.1,0-0.2,0-0.3,0c-0.3,0-0.5,0.2-0.7,0.4
		c-0.2,0.2-0.4,0.5-0.6,0.8c-0.2,0.3-0.3,0.6-0.4,1C301.6,558.4,301.5,558.6,301.4,558.9z"/>
	<path class="st0" d="M311.7,556.2c-0.1,0-0.4,0-0.7,0c-0.3,0-0.6,0-0.9,0c-0.3,0-0.6,0-0.9,0c-0.3,0-0.5-0.1-0.6-0.1
		c-0.1,0-0.1-0.1-0.2-0.2c-0.1-0.1-0.2-0.3-0.2-0.4c-0.1-0.1-0.2-0.3-0.2-0.4c-0.1-0.1-0.1-0.2-0.1-0.3c0-0.2,0-0.5,0-0.8
		s0.2-0.6,0.4-0.9c0.2-0.3,0.4-0.6,0.6-0.8c0.2-0.2,0.5-0.4,0.7-0.4c0.3-0.1,0.5,0,0.7,0.3c0.2,0.2,0.3,0.5,0.4,0.7
		c0,0.1,0,0.3,0,0.5s-0.1,0.4-0.2,0.6c-0.1,0.2-0.1,0.4-0.2,0.6c-0.1,0.2-0.1,0.3-0.2,0.5c0.3,0,0.6,0,0.9,0c0.3,0,0.6,0,0.8,0.1
		c0.3,0.1,0.5,0.2,0.7,0.4c0.2,0.2,0.3,0.5,0.4,0.9c0.1,0.3,0,0.8-0.1,1.3s-0.4,1-0.6,1.6c-0.3,0.5-0.5,1.1-0.8,1.6
		c-0.3,0.5-0.4,0.9-0.6,1.3c0.7-0.5,1.4-1.2,1.9-1.9c0.6-0.7,1.1-1.5,1.6-2.3c0.5-0.8,0.9-1.6,1.4-2.4s0.9-1.6,1.4-2.4
		c0.2,0,0.3,0.1,0.4,0.2s0.2,0.3,0.2,0.4c0,0.1,0,0.1,0,0.2c0,0.1,0,0.1-0.1,0.1c-0.2,0.4-0.5,1-0.8,1.6c-0.3,0.6-0.6,1.3-1,2.1
		c-0.4,0.7-0.8,1.5-1.2,2.2c-0.4,0.7-0.9,1.4-1.4,2.1c-0.5,0.6-1,1.2-1.5,1.6c-0.5,0.4-1,0.7-1.6,0.8c-0.1,0-0.2,0-0.4-0.1
		c-0.1-0.1-0.2-0.2-0.3-0.3c-0.1-0.1-0.2-0.3-0.3-0.4c-0.1-0.2-0.1-0.3-0.1-0.4c-0.1-0.4,0-0.9,0.2-1.5s0.5-1.3,0.8-2
		c0.3-0.7,0.7-1.3,1-1.9S311.6,556.6,311.7,556.2z M308.7,554.7c0.1-0.1,0.2-0.2,0.3-0.3c0.1-0.1,0.2-0.3,0.3-0.4
		c0.1-0.2,0.2-0.3,0.3-0.5c0.1-0.2,0.1-0.3,0.1-0.4C309.1,553.5,308.8,554,308.7,554.7z"/>
	<path class="st0" d="M316.6,559.8c-0.1-1.1,0-2.1,0-3.2c0.1-1.1,0.3-2.1,0.5-3.2c0.2-1,0.5-2.1,0.8-3.1c0.3-1,0.7-2,1.1-2.9
		c0.3-0.6,0.6-1.3,0.9-1.9c0.3-0.7,0.6-1.3,1-1.8c0-0.1,0.1-0.1,0.2-0.2s0.2-0.2,0.2-0.2c0.1,0,0.2,0,0.3,0.1s0.2,0.2,0.3,0.3
		c0.1,0.1,0.1,0.3,0.2,0.4s0.1,0.2,0.1,0.3c0,0.1,0,0.2-0.1,0.4c-0.1,0.2-0.1,0.4-0.2,0.6c-0.1,0.2-0.2,0.4-0.3,0.6
		c-0.1,0.2-0.2,0.3-0.2,0.4c-0.6,1.3-1.1,2.8-1.6,4.3c-0.5,1.5-0.9,3-1.1,4.5c0.2-0.2,0.4-0.6,0.6-1.2s0.5-1.1,0.8-1.6
		s0.6-1.1,0.9-1.5c0.3-0.4,0.6-0.7,1-0.8c0.1,0,0.2,0,0.3,0c0.1,0.1,0.2,0.1,0.3,0.2c0.1,0.1,0.2,0.2,0.2,0.3
		c0.1,0.1,0.1,0.2,0.1,0.3c0.1,0.2,0.1,0.4,0,0.7c0,0.3-0.1,0.5-0.2,0.8c-0.1,0.3-0.2,0.5-0.3,0.7c-0.1,0.2-0.2,0.4-0.4,0.6
		c-0.1,0.1-0.2,0.2-0.3,0.4c-0.1,0.1-0.3,0.3-0.4,0.4c-0.1,0.1-0.3,0.3-0.4,0.4s-0.2,0.2-0.2,0.3c0.5-0.1,1-0.3,1.5-0.7
		c0.5-0.3,1-0.6,1.4-1c0.4-0.4,0.8-0.8,1.2-1.2c0.4-0.4,0.7-0.8,0.9-1.1c0.3-0.3,0.5-0.7,0.8-1.1c0.1,0,0.2,0.1,0.3,0.2
		c0.1,0.1,0.2,0.3,0.2,0.4c-0.3,0.7-0.7,1.3-1.1,1.9c-0.4,0.6-0.8,1.2-1.3,1.8c-0.5,0.5-1,1-1.6,1.4c-0.6,0.4-1.2,0.7-2,0.9
		c-0.3,0.1-0.6,0.1-1,0.1c-0.3,0-0.6,0.1-0.9,0.1c-0.1,0-0.2,0.2-0.3,0.5s-0.2,0.6-0.3,1c-0.1,0.4-0.2,0.7-0.3,1.1s-0.1,0.6-0.2,0.7
		c0,0,0,0.1,0,0.2s0,0.2,0,0.2c0,0.1,0,0.2,0,0.2c0,0.1,0,0.1,0,0.1c-0.4,0.1-0.7,0-1-0.3C316.8,560.5,316.7,560.2,316.6,559.8z
		 M320.4,554.2c0.2,0,0.3-0.2,0.5-0.4c0.2-0.2,0.4-0.5,0.6-0.8c0.2-0.3,0.3-0.6,0.4-0.8c0.1-0.3,0.1-0.4,0-0.5
		c-0.1,0.1-0.2,0.3-0.3,0.5c-0.1,0.2-0.3,0.5-0.4,0.7c-0.2,0.3-0.3,0.5-0.4,0.7C320.6,553.9,320.5,554,320.4,554.2z"/>
	<path class="st0" d="M326.8,552.7c-0.1,0.3-0.1,0.6-0.2,1c0,0.3,0,0.7,0.1,1c0,0.1,0.1,0.2,0.2,0.2s0.2,0.1,0.2,0.1
		c0.1,0,0.2,0,0.3,0s0.2,0,0.2-0.1c0.4-0.1,0.7-0.4,1.1-0.7c0.3-0.4,0.6-0.8,0.9-1.2c0.3-0.5,0.5-1,0.8-1.5s0.4-1,0.6-1.4
		c0.2-0.4,0.3-0.8,0.4-1.1c0.1-0.3,0.2-0.4,0.3-0.5c0,0,0.1,0,0.1,0.1c0.1,0.1,0.1,0.1,0.2,0.2c0,0.1,0.1,0.2,0.1,0.3
		c0,0.1,0.1,0.2,0.1,0.2c0,0.1,0,0.3-0.1,0.7s-0.2,0.8-0.4,1.3c-0.2,0.5-0.4,1-0.6,1.6s-0.5,1.1-0.8,1.6c-0.3,0.5-0.5,0.9-0.8,1.3
		c-0.3,0.4-0.5,0.6-0.8,0.6c-0.4,0.1-0.7,0.1-1,0.1c-0.3-0.1-0.6-0.2-0.9-0.4c-0.3-0.2-0.5-0.4-0.7-0.7c-0.2-0.3-0.3-0.6-0.4-0.9
		c-0.1-0.4-0.2-0.9-0.1-1.5c0.1-0.6,0.2-1.2,0.5-1.7c0.2-0.6,0.5-1.1,0.9-1.5c0.3-0.4,0.7-0.7,1.1-0.9c0.1,0,0.3,0,0.4,0
		c0.2,0,0.3,0.1,0.5,0.2c0.1,0.1,0.3,0.2,0.4,0.4c0.1,0.1,0.2,0.3,0.2,0.4c0.1,0.3,0.1,0.6,0,0.9s-0.2,0.7-0.5,1
		c-0.2,0.3-0.4,0.6-0.7,0.8c-0.3,0.2-0.5,0.4-0.8,0.5c-0.1,0-0.3,0-0.4,0C327,552.9,326.9,552.8,326.8,552.7z M327.2,551.8
		c0.6-0.4,1-1,1.2-1.6c-0.3,0.2-0.5,0.5-0.7,0.7C327.5,551.2,327.3,551.5,327.2,551.8z"/>
	<path class="st0" d="M332.7,560.7c0.2,0.1,0.3,0.2,0.5,0.3c0.1,0.1,0.2,0.3,0.1,0.6c0,0.1-0.1,0.1-0.1,0.2
		c-0.1,0.1-0.1,0.1-0.2,0.2c-0.1,0-0.2,0.1-0.2,0.1c-0.1,0-0.1,0-0.2,0c-0.3-0.1-0.6-0.3-0.7-0.5c-0.2-0.3-0.3-0.6-0.4-0.9
		c-0.2-0.6-0.3-1.3-0.4-2.1c-0.1-0.9-0.1-1.8-0.1-2.8s0.1-2,0.2-3.1c0.1-1.1,0.2-2.1,0.4-3.1c0.1-1,0.3-1.9,0.5-2.8
		c0.2-0.9,0.3-1.6,0.5-2.2c-0.5,0.3-0.9,0.5-1.4,0.8c-0.4,0.3-0.9,0.5-1.3,0.7c-0.4,0.2-0.9,0.5-1.3,0.7c-0.5,0.2-0.9,0.4-1.4,0.6
		c-0.2,0.1-0.3,0.1-0.6,0.2c-0.2,0.1-0.4,0.1-0.6,0.2s-0.4,0-0.6-0.1c-0.2-0.1-0.3-0.2-0.4-0.5c-0.1-0.2-0.1-0.4,0-0.5
		c0-0.1,0.1-0.2,0.3-0.3c0.8-0.3,1.5-0.6,2.1-0.9c0.7-0.4,1.3-0.7,2-1.1c0.4-0.2,0.7-0.4,1-0.6c0.3-0.2,0.6-0.4,0.9-0.5
		c0.3-0.2,0.6-0.4,0.9-0.5c0.3-0.2,0.7-0.4,1-0.6c0,0,0.2-0.2,0.3-0.5c0.2-0.3,0.3-0.6,0.5-1c0.2-0.4,0.4-0.7,0.6-1
		c0.2-0.3,0.3-0.5,0.4-0.5c0.1,0,0.1,0,0.2,0.1c0.1,0.1,0.2,0.1,0.2,0.2s0.1,0.2,0.2,0.3c0.1,0.1,0.1,0.2,0.1,0.2
		c0.1,0.2,0.1,0.3,0,0.4c0,0.1-0.1,0.3-0.1,0.4c0.5-0.2,1-0.4,1.4-0.6c0.5-0.2,0.9-0.5,1.4-0.7c0.5-0.2,0.9-0.5,1.4-0.7
		c0.5-0.2,1-0.4,1.5-0.6c0.3-0.1,0.6-0.2,1-0.3c0.4-0.1,0.8-0.2,1.2-0.2c0.4,0,0.7,0.1,1.1,0.2s0.6,0.4,0.7,0.8
		c0.1,0.2,0.1,0.5,0.1,0.8c0,0.3-0.1,0.5-0.4,0.6c-0.1,0-0.1,0-0.1,0c0,0-0.1-0.1-0.1-0.1c0,0,0-0.1-0.1-0.1c0,0-0.1-0.1-0.1-0.1
		c-0.1-0.1-0.4-0.1-0.6,0c-0.3,0-0.6,0.1-0.9,0.2c-0.3,0.1-0.6,0.2-0.9,0.2c-0.3,0.1-0.5,0.2-0.7,0.2c-0.2,0.1-0.4,0.1-0.8,0.3
		s-0.8,0.3-1.3,0.5c-0.5,0.2-0.9,0.4-1.5,0.6s-1,0.4-1.4,0.6c-0.4,0.2-0.8,0.4-1.1,0.6c-0.3,0.2-0.5,0.4-0.6,0.5
		c-0.3,1-0.6,2.1-0.8,3.2c-0.2,1.1-0.4,2.2-0.6,3.3c-0.3,1.7-0.5,3.3-0.6,5c-0.1,1.7-0.2,3.3-0.2,5c0,0.1,0,0.3,0,0.4
		C332.7,560.5,332.7,560.6,332.7,560.7z"/>
	<path class="st0" d="M336.3,551.6c0.4-0.6,0.8-1.1,1.1-1.6c0.3-0.5,0.6-0.9,0.8-1.4c0.2-0.5,0.5-1,0.7-1.5c0.2-0.5,0.4-1.1,0.7-1.8
		c0-0.1,0-0.1,0-0.2c0-0.1,0.1-0.1,0.1-0.2c0.1,0,0.2,0,0.3,0.2c0.1,0.1,0.2,0.2,0.3,0.3c0,0.1,0,0.2,0,0.3c0,0.1,0,0.2-0.1,0.3
		c-0.1,0.4-0.3,0.9-0.4,1.3c-0.1,0.4-0.3,0.9-0.4,1.3c0,0.2-0.1,0.4-0.3,0.7s-0.3,0.6-0.5,1c-0.2,0.4-0.4,0.7-0.6,1.1
		c-0.2,0.4-0.4,0.7-0.6,1.1c-0.2,0.3-0.4,0.6-0.6,0.8c-0.2,0.2-0.3,0.4-0.4,0.4c-0.1,0-0.3,0-0.4,0c-0.1-0.1-0.3-0.1-0.4-0.3
		c-0.1-0.1-0.3-0.3-0.4-0.4c-0.1-0.1-0.2-0.3-0.2-0.4c-0.1-0.3-0.2-0.5-0.2-0.8s-0.1-0.6-0.1-0.8c0-0.2,0-0.5,0.1-1
		c0-0.5,0.1-1,0.2-1.5c0.1-0.5,0.2-0.9,0.4-1.4c0.1-0.4,0.3-0.6,0.5-0.7c0.1,0,0.2,0,0.3,0c0.1,0,0.2,0.1,0.3,0.2
		c0.1,0.1,0.2,0.2,0.2,0.3c0.1,0.1,0.1,0.2,0.2,0.2c0,0.1,0,0.3-0.1,0.7c-0.1,0.4-0.1,0.8-0.2,1.3c-0.1,0.5-0.1,1-0.2,1.5
		C336.3,551,336.3,551.4,336.3,551.6L336.3,551.6z M337.9,539.7c0,0.1-0.1,0.2-0.1,0.4c0,0.2-0.1,0.3-0.2,0.3
		c-0.2,0.1-0.3,0-0.5-0.2c-0.2-0.2-0.3-0.4-0.3-0.5c-0.1-0.2-0.1-0.4-0.1-0.5c0-0.1,0.1-0.2,0.2-0.4c0,0,0,0,0-0.1c0,0,0,0,0-0.1
		c0.1,0,0.2,0,0.3,0.1c0.1,0.1,0.2,0.2,0.3,0.3c0.1,0.1,0.1,0.2,0.2,0.3C337.8,539.6,337.8,539.7,337.9,539.7z"/>
	<path class="st0" d="M341.1,547.8c0.1-0.1,0.2-0.4,0.3-0.6c0.1-0.3,0.3-0.6,0.4-0.9c0.2-0.3,0.3-0.7,0.5-1c0.2-0.4,0.4-0.7,0.6-1
		c0.2-0.3,0.4-0.6,0.5-0.8s0.3-0.3,0.4-0.4c0.1,0,0.2,0,0.3,0s0.2,0.1,0.3,0.2c0.1,0.1,0.2,0.2,0.3,0.3c0.1,0.1,0.1,0.2,0.2,0.3
		c0,0.1,0.1,0.3,0.1,0.5s0.1,0.5,0.1,0.8c0,0.3,0,0.5,0.1,0.8c0,0.3,0,0.5,0,0.6c0.3-0.3,0.5-0.6,0.7-1c0.2-0.3,0.4-0.7,0.5-1
		c0.2-0.4,0.3-0.7,0.5-1.1c0.1-0.4,0.3-0.7,0.5-1.1c0.1,0.1,0.3,0.1,0.4,0.2s0.2,0.3,0.3,0.5c0,0.3-0.1,0.7-0.2,1.3
		c-0.1,0.6-0.3,1.1-0.5,1.7c-0.2,0.6-0.4,1.1-0.7,1.5c-0.3,0.5-0.5,0.8-0.8,0.9c-0.2,0.1-0.3,0.1-0.5,0c-0.2-0.1-0.4-0.2-0.5-0.4
		c-0.2-0.2-0.3-0.3-0.4-0.5s-0.2-0.4-0.3-0.5c-0.1-0.2-0.1-0.4-0.2-0.7c0-0.2,0-0.5,0-0.7c0-0.2,0-0.4,0-0.6c0-0.2,0-0.3,0-0.3
		c-0.1,0.1-0.2,0.3-0.4,0.6c-0.2,0.3-0.3,0.6-0.5,1c-0.2,0.4-0.4,0.8-0.6,1.2c-0.2,0.4-0.4,0.8-0.6,1.1c-0.2,0.4-0.3,0.6-0.4,0.9
		c-0.1,0.2-0.2,0.4-0.3,0.4c-0.1,0-0.2,0-0.3,0c-0.1-0.1-0.2-0.1-0.4-0.2s-0.2-0.2-0.3-0.4c-0.1-0.1-0.2-0.2-0.2-0.3
		c0-0.1-0.1-0.3-0.1-0.5s0-0.6,0-0.9c0-0.3,0-0.7,0-1.1c0-0.4,0-0.7,0-1c0-0.3,0.1-0.6,0.1-0.8c0-0.2,0.1-0.3,0.2-0.4
		c0.1,0,0.1,0,0.2,0c0.1,0.1,0.2,0.1,0.3,0.2c0.1,0.1,0.2,0.2,0.2,0.3c0.1,0.1,0.1,0.2,0.1,0.2c0.1,0.1,0.1,0.3,0.1,0.5
		c0,0.2,0,0.5,0,0.8c0,0.3,0,0.5,0,0.8C341.1,547.4,341.1,547.6,341.1,547.8z"/>
	<path class="st0" d="M351.2,540.4c-0.1,0.2-0.2,0.5-0.4,0.9c-0.2,0.4-0.4,0.8-0.6,1.2s-0.4,0.8-0.6,1.1c-0.2,0.3-0.4,0.6-0.5,0.6
		c-0.1,0.1-0.2,0.1-0.4,0c-0.1,0-0.3-0.1-0.4-0.1c-0.2-0.1-0.3-0.1-0.4-0.2s-0.2-0.2-0.2-0.3c-0.2-0.3-0.2-0.7-0.2-1.2
		c0-0.5,0.1-0.9,0.3-1.4c0.2-0.5,0.4-0.9,0.6-1.3c0.3-0.4,0.5-0.6,0.8-0.8c0.3-0.1,0.5-0.2,0.8-0.2c0.3,0,0.6,0,0.9,0
		c0.1-0.1,0.2-0.3,0.2-0.6c0-0.3,0.1-0.5,0.1-0.8c0.1-0.3,0.2-0.5,0.3-0.8c0.1-0.3,0.3-0.5,0.7-0.6c0.2-0.1,0.4-0.1,0.6,0.1
		c0.2,0.2,0.4,0.3,0.5,0.5c0,0.1,0.1,0.2,0,0.3s-0.1,0.2-0.1,0.3c-0.1,0.1-0.1,0.2-0.2,0.3c-0.1,0.1-0.1,0.2-0.2,0.2
		c-0.2,0.5-0.3,1-0.3,1.5c0,0.5,0.1,1,0.3,1.5c0.3-0.4,0.6-0.8,1-1.3c0.3-0.4,0.7-0.8,1-1.2s0.7-0.7,1-1c0.3-0.3,0.6-0.5,0.9-0.6
		c0.2-0.1,0.4-0.1,0.5,0c0.1,0.1,0.2,0.3,0.3,0.5c0,0,0,0.1-0.1,0.2c-0.1,0.1-0.2,0.2-0.3,0.2s-0.2,0.2-0.3,0.2
		c-0.1,0.1-0.2,0.1-0.2,0.1c-0.4,0.3-0.8,0.7-1.1,1.1c-0.3,0.4-0.6,0.8-0.9,1.3c0,0.1-0.1,0.2-0.3,0.4c-0.1,0.2-0.3,0.4-0.4,0.6
		c-0.1,0.2-0.3,0.4-0.4,0.6c-0.1,0.2-0.1,0.3-0.1,0.4c0.1,0.3,0.2,0.6,0.3,0.9s0.2,0.6,0.3,0.8c0.4,0.9,0.6,1.9,0.8,3s0.2,2.1,0.1,3
		c-0.1,0.9-0.4,1.6-0.9,2.2c-0.5,0.5-1.1,1-1.8,1.4c-0.3,0.2-0.6,0.3-1,0.4c-0.4,0.1-0.7,0.1-1,0.1s-0.6-0.2-0.9-0.3
		c-0.3-0.2-0.6-0.5-0.8-0.9c-0.2-0.3-0.2-0.7-0.2-1.2c0-0.5,0.1-0.9,0.2-1.4c0.1-0.5,0.3-0.9,0.4-1.4s0.3-0.8,0.4-1.1
		c0.4-1,0.8-1.9,1.3-2.8s0.9-1.7,1.3-2.6c0,0,0-0.1-0.1-0.3c0-0.2-0.1-0.4-0.2-0.7c-0.1-0.2-0.1-0.5-0.2-0.7
		C351.3,540.6,351.3,540.4,351.2,540.4z M349.1,542.2c0.2-0.3,0.3-0.6,0.5-0.9c0.2-0.3,0.4-0.7,0.6-1.1c-0.1-0.2-0.3-0.2-0.4-0.2
		c-0.1,0-0.3,0.1-0.4,0.3c-0.1,0.2-0.2,0.3-0.3,0.6c-0.1,0.2-0.2,0.4-0.2,0.6c0,0.2,0,0.4,0,0.5
		C348.9,542.2,348.9,542.2,349.1,542.2z M352.4,543.8L352.4,543.8c-0.4,0.6-0.7,1.3-1,2c-0.3,0.7-0.6,1.4-0.9,2.2
		c-0.3,0.7-0.5,1.5-0.7,2.3s-0.3,1.5-0.3,2.2c0.3-0.1,0.5-0.2,0.7-0.3c0.2-0.1,0.4-0.3,0.7-0.4c0.7-0.4,1.3-0.9,1.6-1.5
		c0.3-0.6,0.5-1.2,0.6-1.9c0.1-0.7,0-1.4-0.1-2.2C352.8,545.3,352.6,544.6,352.4,543.8z"/>
</g>
<path class="st1" d="M214.6,501c19.5,7.8,41.1,11.4,63.5,9.6c78-6.1,136.3-74.1,130.2-152c-6-77.9-74.2-136.1-152.1-130.1
	c-78,6.1-136.3,74.1-130.2,152c2.1,27.1,11.7,51.9,26.7,72.4"/>
</svg>
